<svg width="41" height="41" viewBox="0 0 41 41" fill="none" xmlns="http://www.w3.org/2000/svg">
<path d="M20.418 40.8203C9.42188 40.8203 0.496094 31.8945 0.496094 20.8984C0.496094 9.90234 9.42188 0.976562 20.418 0.976562C31.4141 0.976562 40.3398 9.90234 40.3398 20.8984C40.3398 31.8945 31.4141 40.8203 20.418 40.8203ZM20.418 37.5C29.5977 37.5 37.0195 30.0781 37.0195 20.8984C37.0195 11.7188 29.5977 4.29688 20.418 4.29688C11.2383 4.29688 3.81641 11.7188 3.81641 20.8984C3.81641 30.0781 11.2383 37.5 20.418 37.5ZM20.2422 14.1406C18.8359 14.1406 17.7031 13.0078 17.7031 11.582C17.7031 10.1562 18.8359 9.02344 20.2422 9.02344C21.668 9.02344 22.7812 10.1562 22.7812 11.582C22.7812 13.0078 21.668 14.1406 20.2422 14.1406ZM17 31.8359C16.1992 31.8359 15.5742 31.25 15.5742 30.4492C15.5742 29.6875 16.1992 29.082 17 29.082H19.4219V20.1367H17.332C16.5312 20.1367 15.9062 19.5508 15.9062 18.75C15.9062 17.9883 16.5312 17.3828 17.332 17.3828H21.0039C22 17.3828 22.5273 18.0859 22.5273 19.1406V29.082H24.9492C25.75 29.082 26.375 29.6875 26.375 30.4492C26.375 31.25 25.75 31.8359 24.9492 31.8359H17Z" fill="black"/>
</svg>
