<svg width="39" height="39" viewBox="0 0 39 39" fill="none" xmlns="http://www.w3.org/2000/svg">
<path d="M28.8516 38.9805C23.2656 38.9805 16.4492 35.4844 10.2188 29.2539C3.94922 23.0039 0.492188 16.168 0.492188 10.582C0.492188 7.20312 1.41016 4.95703 3.61719 3.00391C3.77344 2.84766 3.94922 2.69141 4.10547 2.55469C5.41406 1.38281 6.68359 0.816406 7.89453 0.835938C9.30078 0.855469 10.6094 1.65625 11.8203 3.39453L15.6875 8.94141C16.6641 10.3477 16.4297 12.0078 15.668 13.2188L13.9102 15.9727C13.5781 16.5 13.5391 16.8711 13.793 17.3203C14.4375 18.4336 15.8828 20.2109 17.3672 21.6953C18.832 23.1992 21 24.9375 21.8594 25.4844C22.4258 25.8359 22.9336 25.8359 23.5195 25.5625L26.5469 24.0781C28.4219 23.1797 29.6914 23.2383 31.1953 24.2539L36.0977 27.6133C37.8359 28.8047 38.6367 30.1719 38.6367 31.5781C38.6367 32.7891 38.0898 34.0586 36.918 35.3477C36.7617 35.5234 36.625 35.6797 36.4688 35.8555C34.4961 38.0625 32.25 38.9805 28.8516 38.9805ZM28.8711 36.0117C31.0391 35.9727 32.8945 35.2305 34.2422 33.6875C34.3398 33.5703 34.4375 33.4531 34.5352 33.3359C35.043 32.75 35.3164 32.1055 35.3164 31.5586C35.3164 30.9727 35.1016 30.4648 34.5156 30.0938L29.9453 27.0273C29.3203 26.6367 28.7344 26.5391 27.9922 26.8711L24.7109 28.4336C22.8945 29.3125 21.8398 29.1172 20.668 28.2578C19.3203 27.3203 16.8398 25.2109 15.3555 23.7266C13.8516 22.2422 12.1523 20.0742 11.0195 18.5703C10.1602 17.3984 10.0039 16.3438 10.8633 14.957L12.8164 11.832C13.207 11.1484 13.2266 10.7188 12.8945 10.2305L9.37891 4.95703C8.98828 4.37109 8.5 4.15625 7.91406 4.15625C7.36719 4.15625 6.72266 4.42969 6.13672 4.9375C6.01953 5.03516 5.90234 5.13281 5.78516 5.23047C4.24219 6.57812 3.5 8.41406 3.46094 10.5625C3.36328 15.5625 7.36719 22.1641 12.4648 27.2422C17.5234 32.2812 23.8906 36.1094 28.8711 36.0117Z" fill="black"/>
</svg>
