<svg width="49" height="34" viewBox="0 0 49 34" fill="none" xmlns="http://www.w3.org/2000/svg">
<path d="M7.11328 33.7539C3.05078 33.7539 0.980469 31.7227 0.980469 27.6992V6.13672C0.980469 2.11328 3.03125 0.0820312 6.52734 0.0820312H41.9766C46.0391 0.0820312 48.1094 2.11328 48.1094 6.13672V27.6992C48.1094 31.7227 46.0586 33.7539 42.5625 33.7539H7.11328ZM22.6602 18.2461C23.2656 18.793 23.8906 19.0469 24.5352 19.0469C25.1797 19.0469 25.8047 18.793 26.4102 18.2461L43.1094 3.1875C42.7969 3.10938 42.4648 3.07031 42.0742 3.07031H6.99609C6.625 3.07031 6.27344 3.10938 5.96094 3.1875L22.6602 18.2461ZM45.1211 6.13672C45.1211 5.84375 45.1016 5.57031 45.043 5.31641L33.0898 16.0781L45.1016 28.0898C45.1211 27.9727 45.1211 27.8359 45.1211 27.6992V6.13672ZM3.96875 27.6797C3.96875 27.8164 3.96875 27.9531 3.98828 28.0898L16 16.0977L4.02734 5.33594C3.98828 5.57031 3.96875 5.84375 3.96875 6.11719V27.6797ZM6.99609 30.7656H42.0742C42.6016 30.7656 43.0703 30.6875 43.4609 30.5312L30.9414 18.0117L28.1094 20.5703C26.9961 21.5859 25.7852 22.0547 24.5352 22.0547C23.2852 22.0547 22.0742 21.5859 20.9609 20.5703L18.1289 18.0117L5.62891 30.5312C6.01953 30.6875 6.48828 30.7656 6.99609 30.7656Z" fill="black"/>
</svg>
