<svg width="55" height="34" viewBox="0 0 55 34" fill="none" xmlns="http://www.w3.org/2000/svg">
<path d="M27.6836 33.6562C12.0977 33.6562 0.984375 20.9023 0.984375 16.918C0.984375 12.9141 12.1172 0.179688 27.6836 0.179688C43.4453 0.179688 54.3633 12.9141 54.3633 16.918C54.3633 20.9023 43.4648 33.6562 27.6836 33.6562ZM27.6836 30.5703C40.4961 30.5703 50.9453 19.6719 50.9453 16.918C50.9453 14.5938 40.4961 3.26562 27.6836 3.26562C14.8125 3.26562 4.40234 14.5938 4.40234 16.918C4.40234 19.6719 14.8125 30.5703 27.6836 30.5703ZM27.6836 27.8359C21.6289 27.8359 16.707 22.9336 16.707 16.8789C16.707 10.8242 21.6289 5.92188 27.6836 5.92188C33.7383 5.92188 38.6406 10.8242 38.6406 16.8789C38.6406 22.9336 33.7383 27.8359 27.6836 27.8359ZM27.6836 20.5312C29.6953 20.5312 31.3164 18.9102 31.3164 16.8984C31.3164 14.8867 29.6953 13.2656 27.6836 13.2656C25.6719 13.2656 24.0508 14.8867 24.0508 16.8984C24.0508 18.9102 25.6719 20.5312 27.6836 20.5312Z" fill="black"/>
</svg>
