<svg width="40" height="37" viewBox="0 0 40 37" fill="none" xmlns="http://www.w3.org/2000/svg">
<path d="M0.980469 12.3711C0.980469 5.45703 5.72656 0.574219 12.0547 0.574219C15.668 0.574219 18.6367 2.3125 20.375 4.92969C22.1523 2.29297 25.082 0.574219 28.6953 0.574219C35.0234 0.574219 39.7695 5.45703 39.7695 12.3711C39.7695 20.6914 32.7969 28.875 21.8008 35.9062C21.3711 36.1602 20.7852 36.4336 20.375 36.4336C19.9648 36.4336 19.3789 36.1602 18.9688 35.9062C7.95312 28.875 0.980469 20.6914 0.980469 12.3711ZM4.125 12.3711C4.125 19.6367 11.8008 27.4688 19.9844 32.8984C20.1602 33.0352 20.2969 33.1328 20.375 33.1328C20.4531 33.1328 20.5898 33.0352 20.7852 32.8984C28.9492 27.4688 36.625 19.6367 36.625 12.3711C36.625 7.17578 33.2656 3.71875 28.7344 3.71875C25.082 3.71875 23.0508 6.04297 21.7031 7.95703C21.1367 8.71875 20.8438 8.95312 20.375 8.95312C19.9062 8.95312 19.5742 8.73828 19.0469 7.95703C17.7969 6.00391 15.6875 3.71875 12.0156 3.71875C7.48438 3.71875 4.125 7.17578 4.125 12.3711Z" fill="black"/>
</svg>
