<svg width="41" height="41" viewBox="0 0 41 41" fill="none" xmlns="http://www.w3.org/2000/svg">
<path d="M20.418 40.8203C9.42188 40.8203 0.496094 31.8945 0.496094 20.8984C0.496094 9.90234 9.42188 0.976562 20.418 0.976562C31.4141 0.976562 40.3398 9.90234 40.3398 20.8984C40.3398 31.8945 31.4141 40.8203 20.418 40.8203ZM20.418 37.5C29.5977 37.5 37.0195 30.0781 37.0195 20.8984C37.0195 11.7188 29.5977 4.29688 20.418 4.29688C11.2383 4.29688 3.81641 11.7188 3.81641 20.8984C3.81641 30.0781 11.2383 37.5 20.418 37.5ZM20.0078 24.9414C19.0117 24.9414 18.4453 24.4141 18.4453 23.3984V23.1445C18.4453 21.2305 19.5 20.1953 20.9062 19.2188C22.6055 18.0273 23.4258 17.3828 23.4258 16.0547C23.4258 14.5703 22.2734 13.5547 20.4961 13.5547C19.1875 13.5547 18.1719 14.2188 17.4883 15.3516L17.1367 15.8203C16.7852 16.2891 16.3555 16.6016 15.6914 16.6016C15.0469 16.6016 14.3633 16.1328 14.3633 15.2539C14.3633 14.9219 14.4219 14.6094 14.5195 14.2969C15.0469 12.5 17.2539 10.8984 20.6133 10.8984C23.9336 10.8984 26.8242 12.6562 26.8242 15.8984C26.8242 18.2422 25.4766 19.375 23.582 20.625C22.2148 21.5234 21.5898 22.2266 21.5898 23.3203V23.5547C21.5898 24.3164 20.9844 24.9414 20.0078 24.9414ZM19.9688 30.7617C18.8359 30.7617 17.8594 29.8438 17.8594 28.7305C17.8594 27.6172 18.8164 26.6992 19.9688 26.6992C21.1211 26.6992 22.0781 27.5977 22.0781 28.7305C22.0781 29.8633 21.1016 30.7617 19.9688 30.7617Z" fill="black"/>
</svg>
