<svg width="48" height="42" viewBox="0 0 48 42" fill="none" xmlns="http://www.w3.org/2000/svg">
<path d="M2.66016 21.2109C1.60547 21.2109 0.980469 20.4492 0.980469 19.6484C0.980469 19.1992 1.17578 18.7305 1.60547 18.3789L21.957 1.28906C22.6992 0.664062 23.5 0.351562 24.3008 0.351562C25.1016 0.351562 25.9023 0.664062 26.6445 1.28906L37.0156 9.98047V6.17188C37.0156 5.3125 37.582 4.76562 38.4219 4.76562H40.5117C41.3711 4.76562 41.918 5.3125 41.918 6.17188V14.1016L46.9961 18.3789C47.4453 18.7305 47.6211 19.1992 47.6211 19.6484C47.6211 20.4492 46.9961 21.2109 45.9414 21.2109C45.3945 21.2109 44.9453 20.918 44.5547 20.5859L41.918 18.3594V37.1094C41.918 39.8438 40.2969 41.4258 37.5234 41.4258H11.0977C8.30469 41.4258 6.68359 39.8633 6.68359 37.1094V18.3594L4.06641 20.5859C3.65625 20.918 3.20703 21.2109 2.66016 21.2109ZM29.9648 26.7969V38.2812H36.8594C38.0898 38.2812 38.7734 37.5977 38.7734 36.3281V15.7227L24.9844 4.16016C24.7695 3.98438 24.5352 3.88672 24.3008 3.88672C24.0859 3.88672 23.832 3.98438 23.6172 4.16016L9.82812 15.7227V36.3281C9.82812 37.5977 10.5117 38.2812 11.7617 38.2812H18.6367V26.7969C18.6367 25.8984 19.2422 25.3125 20.1406 25.3125H28.4805C29.3789 25.3125 29.9648 25.8984 29.9648 26.7969Z" fill="black"/>
</svg>
