<svg width="38" height="38" viewBox="0 0 38 38" fill="none" xmlns="http://www.w3.org/2000/svg">
<path d="M2.25781 15.3828L33.4688 0.910156C34.1849 0.571615 34.8424 0.434896 35.4414 0.5C36.0534 0.552083 36.5547 0.760417 36.9453 1.125C37.3359 1.48958 37.5703 1.96484 37.6484 2.55078C37.7266 3.13672 37.6029 3.78776 37.2773 4.50391L22.8438 35.5391C22.5833 36.099 22.2448 36.5286 21.8281 36.8281C21.4245 37.1406 20.9883 37.3164 20.5195 37.3555C20.0638 37.4076 19.6341 37.3424 19.2305 37.1602C18.8268 36.9779 18.4948 36.6784 18.2344 36.2617C17.974 35.8581 17.8438 35.3503 17.8438 34.7383L17.8047 20.6172C17.8047 20.4219 17.707 20.3242 17.5117 20.3242L3.27344 20.2656C2.6875 20.2526 2.1862 20.1224 1.76953 19.875C1.36589 19.6146 1.0599 19.2891 0.851562 18.8984C0.65625 18.4948 0.571615 18.0716 0.597656 17.6289C0.623698 17.1862 0.766927 16.763 1.02734 16.3594C1.30078 15.9557 1.71094 15.6302 2.25781 15.3828ZM5.65625 17.2188L19.4453 17.1406C19.888 17.1406 20.2461 17.2773 20.5195 17.5508C20.793 17.8242 20.9297 18.1758 20.9297 18.6055L20.832 32.4141C20.832 32.4531 20.8451 32.4792 20.8711 32.4922C20.8971 32.4922 20.9167 32.4727 20.9297 32.4336L33.8594 4.38672C33.8854 4.30859 33.8854 4.26302 33.8594 4.25C33.8333 4.22396 33.7878 4.22396 33.7227 4.25L5.65625 17.1016C5.60417 17.1276 5.57812 17.1536 5.57812 17.1797C5.59115 17.2057 5.61719 17.2188 5.65625 17.2188Z" fill="black"/>
</svg>
