<svg width="46" height="43" viewBox="0 0 46 43" fill="none" xmlns="http://www.w3.org/2000/svg">
<path d="M6.37891 42.8359C4.36068 42.8359 2.84375 42.3281 1.82812 41.3125C0.825521 40.2969 0.324219 38.7669 0.324219 36.7227V7.09375C0.324219 5.0625 0.825521 3.53255 1.82812 2.50391C2.84375 1.47526 4.36068 0.960938 6.37891 0.960938H27.1211C29.1393 0.960938 30.6497 1.47526 31.6523 2.50391C32.668 3.53255 33.1758 5.0625 33.1758 7.09375V16.6836H30.0312V7.15234C30.0312 6.17578 29.7708 5.42708 29.25 4.90625C28.7422 4.3724 27.9805 4.10547 26.9648 4.10547H6.53516C5.51953 4.10547 4.7513 4.3724 4.23047 4.90625C3.72266 5.42708 3.46875 6.17578 3.46875 7.15234V36.6641C3.46875 37.6406 3.72266 38.3893 4.23047 38.9102C4.7513 39.431 5.51953 39.6914 6.53516 39.6914H26.9648C27.9805 39.6914 28.7422 39.431 29.25 38.9102C29.7708 38.3893 30.0312 37.6406 30.0312 36.6641V27.1133H33.1758V36.7227C33.1758 38.7669 32.668 40.2969 31.6523 41.3125C30.6497 42.3281 29.1393 42.8359 27.1211 42.8359H6.37891ZM17.1016 21.8984C17.1016 21.4818 17.2513 21.1172 17.5508 20.8047C17.8503 20.4922 18.2018 20.3359 18.6055 20.3359H38.4688L41.3984 20.4727L40.2461 19.3594L37.0234 16.3516C36.7109 16.0781 36.5547 15.7201 36.5547 15.2773C36.5547 14.8607 36.6849 14.5221 36.9453 14.2617C37.2057 14.0013 37.5312 13.8711 37.9219 13.8711C38.2995 13.8711 38.6445 14.0208 38.957 14.3203L45.168 20.7656C45.3633 20.9609 45.4935 21.1497 45.5586 21.332C45.6367 21.5143 45.6758 21.7031 45.6758 21.8984C45.6758 22.0938 45.6367 22.2826 45.5586 22.4648C45.4935 22.6471 45.3633 22.8359 45.168 23.0312L38.957 29.457C38.6445 29.7695 38.2995 29.9258 37.9219 29.9258C37.5312 29.9258 37.2057 29.7891 36.9453 29.5156C36.6849 29.2422 36.5547 28.9036 36.5547 28.5C36.5547 28.0703 36.7109 27.7188 37.0234 27.4453L40.2461 24.418L41.3984 23.3242L38.4688 23.4414H18.6055C18.2018 23.4414 17.8503 23.2917 17.5508 22.9922C17.2513 22.6797 17.1016 22.3151 17.1016 21.8984Z" fill="black"/>
</svg>
