<svg width="41" height="40" viewBox="0 0 41 40" fill="none" xmlns="http://www.w3.org/2000/svg">
<path d="M2.39453 38.4141C1.69141 38.4141 1.14453 38.2188 0.753906 37.8281C0.376302 37.4375 0.1875 36.8776 0.1875 36.1484V9.87891C0.1875 9.21484 0.324219 8.64844 0.597656 8.17969C0.871094 7.69792 1.29427 7.29427 1.86719 6.96875L12.0234 1.1875C12.6354 0.822917 13.306 0.640625 14.0352 0.640625C14.7513 0.640625 15.4089 0.822917 16.0078 1.1875L26.6133 7.69141L36.9648 1.92969C37.2904 1.76042 37.5833 1.63672 37.8438 1.55859C38.1042 1.46745 38.3581 1.42188 38.6055 1.42188C39.3086 1.42188 39.849 1.61719 40.2266 2.00781C40.6172 2.39844 40.8125 2.95182 40.8125 3.66797V29.9766C40.8125 30.6276 40.6758 31.194 40.4023 31.6758C40.1289 32.1445 39.6992 32.5417 39.1133 32.8672L28.8984 38.668C28.3125 39.0065 27.6615 39.1758 26.9453 39.1758C26.1901 39.1758 25.4609 38.9805 24.7578 38.5898L13.957 32.5352L4.01562 37.8867C3.70312 38.069 3.41667 38.1992 3.15625 38.2773C2.89583 38.3685 2.64193 38.4141 2.39453 38.4141ZM12.6875 29.4297V4.48828C12.5703 4.55339 12.4531 4.61849 12.3359 4.68359C12.2318 4.7487 12.1146 4.8138 11.9844 4.87891L3.97656 9.56641C3.74219 9.69661 3.57292 9.85286 3.46875 10.0352C3.3776 10.2044 3.33203 10.4062 3.33203 10.6406V34.0586C3.33203 34.2669 3.41667 34.3711 3.58594 34.3711C3.65104 34.3711 3.7487 34.3385 3.87891 34.2734L12.6875 29.4297ZM15.832 29.7422L24.3086 34.5273C24.4518 34.6055 24.5951 34.6771 24.7383 34.7422C24.8815 34.8203 25.0247 34.8984 25.168 34.9766V10.5625L16.457 5.25C16.3529 5.1849 16.2487 5.1263 16.1445 5.07422C16.0404 5.00911 15.9362 4.95052 15.832 4.89844V29.7422ZM28.3125 35.3281C28.4557 35.25 28.599 35.1719 28.7422 35.0938C28.8984 35.0156 29.0482 34.931 29.1914 34.8398L37.0234 30.2891C37.2578 30.1589 37.4206 30.0026 37.5117 29.8203C37.6159 29.638 37.668 29.4297 37.668 29.1953V5.77734C37.668 5.67318 37.6419 5.59505 37.5898 5.54297C37.5508 5.49089 37.4857 5.46484 37.3945 5.46484C37.3424 5.46484 37.2513 5.4974 37.1211 5.5625L28.3125 10.3672V35.3281Z" fill="black"/>
</svg>
