<svg width="46" height="39" viewBox="0 0 46 39" fill="none" xmlns="http://www.w3.org/2000/svg">
<path d="M16.332 28.9922C14.9128 28.9922 13.8255 28.5885 13.0703 27.7812C12.3151 26.974 11.8333 25.8737 11.625 24.4805L8.5 3.03516H1.89844C1.50781 3.03516 1.16927 2.89193 0.882812 2.60547C0.596354 2.30599 0.453125 1.95443 0.453125 1.55078C0.453125 1.16016 0.596354 0.821615 0.882812 0.535156C1.16927 0.235677 1.50781 0.0859375 1.89844 0.0859375H8.75391C9.75651 0.0859375 10.4336 0.27474 10.7852 0.652344C11.1497 1.02995 11.3841 1.59635 11.4883 2.35156L14.6914 24.0898C14.7695 24.6888 14.9779 25.1706 15.3164 25.5352C15.668 25.8867 16.1172 26.0625 16.6641 26.0625H39.125C39.5026 26.0625 39.8346 26.2057 40.1211 26.4922C40.4076 26.7656 40.5508 27.1107 40.5508 27.5273C40.5508 27.944 40.4076 28.2956 40.1211 28.582C39.8346 28.8555 39.5026 28.9922 39.125 28.9922H16.332ZM12.7383 22.0391L12.6992 19.1094H38.8711C39.444 19.1094 39.8932 18.9336 40.2188 18.582C40.5443 18.2174 40.7461 17.7357 40.8242 17.1367L42.2109 7.78125H11.0586L11.0391 4.83203H43.7539C44.2878 4.83203 44.7174 4.98177 45.043 5.28125C45.3685 5.56771 45.5312 5.94531 45.5312 6.41406C45.5312 6.50521 45.5247 6.6224 45.5117 6.76562C45.4987 6.89583 45.4792 7.02604 45.4531 7.15625L43.8906 17.4883C43.6823 18.8945 43.2005 20.0078 42.4453 20.8281C41.6901 21.6354 40.5964 22.0391 39.1641 22.0391H12.7383ZM17.875 38.4844C17.276 38.4844 16.7357 38.3411 16.2539 38.0547C15.7852 37.7812 15.4076 37.4036 15.1211 36.9219C14.8346 36.4401 14.6914 35.9062 14.6914 35.3203C14.6914 34.7344 14.8346 34.2005 15.1211 33.7188C15.4076 33.237 15.7852 32.8529 16.2539 32.5664C16.7357 32.293 17.276 32.1562 17.875 32.1562C18.7474 32.1562 19.4896 32.4622 20.1016 33.0742C20.7266 33.6862 21.0391 34.4349 21.0391 35.3203C21.0391 36.2057 20.7266 36.9544 20.1016 37.5664C19.4896 38.1784 18.7474 38.4844 17.875 38.4844ZM36.1367 38.4844C35.2643 38.4844 34.5156 38.1784 33.8906 37.5664C33.2656 36.9544 32.9531 36.2057 32.9531 35.3203C32.9531 34.7344 33.0964 34.2005 33.3828 33.7188C33.6693 33.237 34.0534 32.8529 34.5352 32.5664C35.0169 32.293 35.5508 32.1562 36.1367 32.1562C37.0221 32.1562 37.7708 32.4622 38.3828 33.0742C39.0078 33.6862 39.3203 34.4349 39.3203 35.3203C39.3203 36.2057 39.0078 36.9544 38.3828 37.5664C37.7708 38.1784 37.0221 38.4844 36.1367 38.4844Z" fill="black"/>
</svg>
