<svg width="55" height="37" viewBox="0 0 55 37" fill="none" xmlns="http://www.w3.org/2000/svg">
<path d="M42.9375 35.832L10.2617 3.19531C9.69531 2.62891 9.69531 1.63281 10.2617 1.06641C10.8672 0.480469 11.8242 0.480469 12.4102 1.06641L45.0664 33.7031C45.6523 34.3086 45.7109 35.1875 45.0664 35.832C44.4609 36.4766 43.5234 36.4375 42.9375 35.832ZM27.6836 2.17969C43.4453 2.17969 54.3633 14.9141 54.3633 18.918C54.3633 21.1641 50.9453 26.125 45.1836 30.0508L42.8203 27.707C47.7812 24.4258 50.9453 20.4414 50.9453 18.918C50.9453 16.5938 40.4961 5.26562 27.6836 5.26562C25.457 5.26562 23.3281 5.63672 21.3555 6.24219L18.7578 3.64453C21.4922 2.74609 24.4805 2.17969 27.6836 2.17969ZM27.6836 35.6562C12.0977 35.6562 0.984375 22.9023 0.984375 18.918C0.984375 16.6328 4.65625 11.457 10.75 7.45312L13.1719 9.875C7.82031 13.2734 4.40234 17.6094 4.40234 18.918C4.40234 21.6719 14.8125 32.5703 27.6836 32.5703C30.1641 32.5703 32.5664 32.1406 34.7734 31.457L37.3125 34.0156C34.3828 35.0312 31.1406 35.6562 27.6836 35.6562ZM27.6836 7.98047C33.7578 7.98047 38.6406 12.8047 38.6406 18.918C38.6406 20.2656 38.3672 21.5547 37.8594 22.7461L23.8555 8.74219C25.0273 8.27344 26.3164 7.98047 27.6836 7.98047ZM27.6836 29.8555C21.5703 29.8555 16.6875 24.875 16.6875 18.918C16.6875 17.3164 17.0586 15.7539 17.7031 14.4062L32.1562 28.8398C30.8086 29.5039 29.2852 29.8555 27.6836 29.8555Z" fill="black"/>
</svg>
