<svg width="37" height="42" viewBox="0 0 37 42" fill="none" xmlns="http://www.w3.org/2000/svg">
<path d="M0.140625 31.6406C0.140625 29.6875 2.11328 27.9297 3.8125 26.1914C5.10156 24.8438 5.45312 22.0703 5.60938 19.8242C5.74609 12.1289 7.73828 7.16797 12.9336 5.29297C13.5781 2.73438 15.6875 0.722656 18.5586 0.722656C21.4492 0.722656 23.5391 2.73438 24.2031 5.29297C29.3984 7.16797 31.3906 12.1289 31.5273 19.8242C31.6836 22.0703 32.0352 24.8438 33.3242 26.1914C35.0039 27.9297 36.9961 29.6875 36.9961 31.6406C36.9961 33.0664 35.8828 34.0039 34.0469 34.0039H25.8047C25.6484 37.793 22.6992 41.0742 18.5586 41.0742C14.4375 41.0742 11.4883 37.7734 11.332 34.0039H3.08984C1.23438 34.0039 0.140625 33.0664 0.140625 31.6406ZM3.92969 31.0547H33.1875V30.8203C32.8359 30.2539 31.6836 29.1016 30.6484 27.9688C29.2617 26.4062 28.5977 23.8867 28.4219 20.0781C28.2656 11.543 25.7266 8.82812 22.3672 7.91016C21.8789 7.79297 21.625 7.55859 21.6055 7.05078C21.5273 5.01953 20.375 3.59375 18.5586 3.59375C16.7617 3.59375 15.5898 5.01953 15.5312 7.05078C15.5117 7.55859 15.2383 7.79297 14.75 7.91016C11.4102 8.82812 8.87109 11.543 8.71484 20.0781C8.53906 23.8867 7.875 26.4062 6.46875 27.9688C5.45312 29.1016 4.28125 30.2539 3.92969 30.8203V31.0547ZM14.3789 34.0039C14.5156 36.6602 16.2148 38.3203 18.5586 38.3203C20.9219 38.3203 22.6016 36.6602 22.7578 34.0039H14.3789Z" fill="black"/>
</svg>
