<svg width="28" height="39" viewBox="0 0 28 39" fill="none" xmlns="http://www.w3.org/2000/svg">
<path d="M4.88281 38.5508C2.01172 38.5508 0.488281 36.9883 0.488281 33.9023V20.4453C0.488281 17.7305 1.67969 16.207 3.90625 15.875V11.1484C3.90625 3.80469 8.71094 0.25 13.8086 0.25C18.9258 0.25 23.7305 3.80469 23.7305 11.1484V15.875C25.9766 16.207 27.1484 17.75 27.1484 20.4453V33.9023C27.1484 36.9883 25.625 38.5508 22.7539 38.5508H4.88281ZM7.01172 10.7383V15.8164H20.6445V10.7383C20.6445 5.79688 17.4609 3.19922 13.8086 3.19922C10.1562 3.19922 7.01172 5.79688 7.01172 10.7383ZM4.98047 35.6016H22.6562C23.5156 35.6016 23.9844 35.0742 23.9844 34.1172V20.2305C23.9844 19.2734 23.5156 18.7656 22.6562 18.7656H4.98047C4.14062 18.7656 3.65234 19.2734 3.65234 20.2305V34.1172C3.65234 35.0742 4.14062 35.6016 4.98047 35.6016Z" fill="black"/>
</svg>
