<svg width="36" height="46" viewBox="0 0 36 46" fill="none" xmlns="http://www.w3.org/2000/svg">
<path d="M0.34375 38.5625V9.48047C0.34375 7.70964 0.81901 6.36849 1.76953 5.45703C2.73307 4.54557 4.00911 4.04427 5.59766 3.95312C7.94141 3.8099 10.1615 3.61458 12.2578 3.36719C14.3542 3.10677 16.3594 2.80729 18.2734 2.46875C20.2005 2.13021 22.0755 1.7526 23.8984 1.33594C25.7734 0.893229 27.2122 1.11458 28.2148 2C29.2174 2.88542 29.7188 4.29818 29.7188 6.23828V34.832C29.7188 36.5378 29.4258 37.8073 28.8398 38.6406C28.2539 39.487 27.2643 40.1055 25.8711 40.4961C23.3971 41.1732 21.0664 41.707 18.8789 42.0977C16.6914 42.5013 14.556 42.8073 12.4727 43.0156C10.3893 43.224 8.25391 43.3867 6.06641 43.5039C4.25651 43.6081 2.85026 43.2305 1.84766 42.3711C0.845052 41.5247 0.34375 40.2552 0.34375 38.5625ZM3.48828 37.9961C3.48828 38.7904 3.72917 39.3893 4.21094 39.793C4.69271 40.2096 5.35677 40.3984 6.20312 40.3594C8.36458 40.2552 10.4544 40.099 12.4727 39.8906C14.4909 39.6953 16.4831 39.4219 18.4492 39.0703C20.4284 38.7188 22.4401 38.263 24.4844 37.7031C25.2396 37.5078 25.7734 37.1888 26.0859 36.7461C26.4115 36.2904 26.5742 35.6133 26.5742 34.7148V6.78516C26.5742 5.91276 26.3203 5.26172 25.8125 4.83203C25.3177 4.40234 24.6211 4.29167 23.7227 4.5C21.9388 4.90365 20.1029 5.27474 18.2148 5.61328C16.3398 5.95182 14.3867 6.24479 12.3555 6.49219C10.3372 6.73958 8.20182 6.92188 5.94922 7.03906C5.23307 7.07812 4.64062 7.27995 4.17188 7.64453C3.71615 7.99609 3.48828 8.58203 3.48828 9.40234V37.9961ZM7.76562 13.9531C7.4401 13.9792 7.16667 13.888 6.94531 13.6797C6.73698 13.4714 6.63281 13.2109 6.63281 12.8984C6.63281 12.599 6.72396 12.3451 6.90625 12.1367C7.10156 11.9154 7.38802 11.7917 7.76562 11.7656C10.5391 11.5964 13.0781 11.3294 15.3828 10.9648C17.6875 10.5872 19.9271 10.1576 22.1016 9.67578C22.5312 9.58464 22.8568 9.64974 23.0781 9.87109C23.3125 10.0794 23.4297 10.3333 23.4297 10.6328C23.4297 10.9062 23.3516 11.1536 23.1953 11.375C23.0521 11.5833 22.7591 11.7331 22.3164 11.8242C20.0378 12.332 17.7331 12.7747 15.4023 13.1523C13.0846 13.5169 10.5391 13.7839 7.76562 13.9531ZM7.76562 20.2422C7.4401 20.2552 7.16667 20.1576 6.94531 19.9492C6.73698 19.7409 6.63281 19.4805 6.63281 19.168C6.63281 18.8815 6.72396 18.6341 6.90625 18.4258C7.10156 18.2044 7.38802 18.0807 7.76562 18.0547C10.5391 17.8724 13.0781 17.599 15.3828 17.2344C17.6875 16.8698 19.9271 16.4466 22.1016 15.9648C22.5312 15.8737 22.8568 15.9388 23.0781 16.1602C23.3125 16.3685 23.4297 16.6224 23.4297 16.9219C23.4297 17.1953 23.3516 17.4362 23.1953 17.6445C23.0521 17.8529 22.7591 18.0091 22.3164 18.1133C20.0378 18.6211 17.7331 19.0573 15.4023 19.4219C13.0846 19.7865 10.5391 20.0599 7.76562 20.2422ZM7.76562 26.5312C7.4401 26.5443 7.16667 26.4466 6.94531 26.2383C6.73698 26.0299 6.63281 25.7695 6.63281 25.457C6.63281 25.1706 6.72396 24.9232 6.90625 24.7148C7.10156 24.4935 7.38802 24.3698 7.76562 24.3438C10.5391 24.1615 13.0781 23.888 15.3828 23.5234C17.6875 23.1589 19.9271 22.7357 22.1016 22.2539C22.5312 22.1628 22.8568 22.2214 23.0781 22.4297C23.3125 22.638 23.4297 22.8984 23.4297 23.2109C23.4297 23.4844 23.3516 23.7253 23.1953 23.9336C23.0521 24.1419 22.7591 24.2982 22.3164 24.4023C20.0378 24.8971 17.7331 25.3333 15.4023 25.7109C13.0846 26.0755 10.5391 26.349 7.76562 26.5312ZM7.76562 32.8008C7.4401 32.8138 7.16667 32.7161 6.94531 32.5078C6.73698 32.2995 6.63281 32.0391 6.63281 31.7266C6.63281 31.4401 6.72396 31.1927 6.90625 30.9844C7.10156 30.763 7.38802 30.6393 7.76562 30.6133C9.34115 30.5221 10.6823 30.4115 11.7891 30.2812C12.9089 30.138 13.9375 29.9948 14.875 29.8516C15.3177 29.7734 15.6497 29.8451 15.8711 30.0664C16.1055 30.2878 16.2227 30.5482 16.2227 30.8477C16.2227 31.0951 16.138 31.3294 15.9688 31.5508C15.7995 31.7721 15.5521 31.9154 15.2266 31.9805C14.1719 32.1497 13.0651 32.306 11.9062 32.4492C10.7474 32.5924 9.36719 32.7096 7.76562 32.8008ZM15.9492 45.2812C17.5898 45.0339 19.2956 44.7279 21.0664 44.3633C22.8372 43.9987 24.6862 43.5625 26.6133 43.0547C27.9284 42.6771 29.0091 42.1367 29.8555 41.4336C30.7148 40.7305 31.3529 39.832 31.7695 38.7383C32.1862 37.6576 32.3945 36.3555 32.3945 34.832V6.23828C32.3945 5.9388 32.3815 5.65234 32.3555 5.37891C32.3424 5.10547 32.3229 4.83854 32.2969 4.57812C33.4036 4.90365 34.237 5.53516 34.7969 6.47266C35.3698 7.39714 35.6562 8.61458 35.6562 10.125V39.168C35.6562 41.2122 35.1549 42.7422 34.1523 43.7578C33.1497 44.7734 31.6393 45.2812 29.6211 45.2812H15.9492Z" fill="black"/>
</svg>
